<svg xmlns="http://www.w3.org/2000/svg" viewBox="0 0 600 750" role="img" aria-label="Placeholder image of a ceramic vase">
  <defs>
    <linearGradient id="glaze-vase-10" x1="0" y1="0" x2="0" y2="1">
      <stop offset="0" stop-color="#d8c9c2"/>
      <stop offset="1" stop-color="#a98e83"/>
    </linearGradient>
    <linearGradient id="glaze-vase-10-sheen" x1="0" y1="0" x2="1" y2="0">
      <stop offset="0" stop-color="#ffffff" stop-opacity="0.32"/>
      <stop offset="0.45" stop-color="#ffffff" stop-opacity="0"/>
      <stop offset="1" stop-color="#000000" stop-opacity="0.10"/>
    </linearGradient>
  </defs>
  <rect width="600" height="750" fill="#f5efea"/>
  <ellipse cx="300.0" cy="654" rx="109" ry="20" fill="#ddd2cb" opacity="0.55"/>
  <path d="M 418.0 140.0 C 450.0 150.0, 386.3 173.3, 374.0 200.0 C 361.7 226.7, 350.0 263.3, 344.0 300.0 C 338.0 336.7, 336.7 383.3, 338.0 420.0 C 339.3 456.7, 345.7 491.7, 352.0 520.0 C 358.3 548.3, 370.0 574.0, 376.0 590.0 C 382.0 606.0, 386.7 607.7, 388.0 616.0 C 389.3 624.3, 412.7 636.0, 384.0 640.0 C 355.3 644.0, 244.7 644.0, 216.0 640.0 C 187.3 636.0, 210.7 624.3, 212.0 616.0 C 213.3 607.7, 218.0 606.0, 224.0 590.0 C 230.0 574.0, 241.7 548.3, 248.0 520.0 C 254.3 491.7, 260.7 456.7, 262.0 420.0 C 263.3 383.3, 262.0 336.7, 256.0 300.0 C 250.0 263.3, 238.3 226.7, 226.0 200.0 C 213.7 173.3, 150.0 150.0, 182.0 140.0 C 214.0 130.0, 386.0 130.0, 418.0 140.0 Z" fill="url(#glaze-vase-10)"/>
  <path d="M 418.0 140.0 C 450.0 150.0, 386.3 173.3, 374.0 200.0 C 361.7 226.7, 350.0 263.3, 344.0 300.0 C 338.0 336.7, 336.7 383.3, 338.0 420.0 C 339.3 456.7, 345.7 491.7, 352.0 520.0 C 358.3 548.3, 370.0 574.0, 376.0 590.0 C 382.0 606.0, 386.7 607.7, 388.0 616.0 C 389.3 624.3, 412.7 636.0, 384.0 640.0 C 355.3 644.0, 244.7 644.0, 216.0 640.0 C 187.3 636.0, 210.7 624.3, 212.0 616.0 C 213.3 607.7, 218.0 606.0, 224.0 590.0 C 230.0 574.0, 241.7 548.3, 248.0 520.0 C 254.3 491.7, 260.7 456.7, 262.0 420.0 C 263.3 383.3, 262.0 336.7, 256.0 300.0 C 250.0 263.3, 238.3 226.7, 226.0 200.0 C 213.7 173.3, 150.0 150.0, 182.0 140.0 C 214.0 130.0, 386.0 130.0, 418.0 140.0 Z" fill="url(#glaze-vase-10-sheen)"/>
  <ellipse cx="300.0" cy="140" rx="118" ry="18.9" fill="#000000" opacity="0.28"/>
</svg>
