<svg xmlns="http://www.w3.org/2000/svg" viewBox="0 0 600 750" role="img" aria-label="Placeholder image of a ceramic vase">
  <defs>
    <linearGradient id="glaze-vase-11" x1="0" y1="0" x2="0" y2="1">
      <stop offset="0" stop-color="#7a4a3a"/>
      <stop offset="1" stop-color="#4a2a20"/>
    </linearGradient>
    <linearGradient id="glaze-vase-11-sheen" x1="0" y1="0" x2="1" y2="0">
      <stop offset="0" stop-color="#ffffff" stop-opacity="0.32"/>
      <stop offset="0.45" stop-color="#ffffff" stop-opacity="0"/>
      <stop offset="1" stop-color="#000000" stop-opacity="0.10"/>
    </linearGradient>
  </defs>
  <rect width="600" height="750" fill="#f3eae2"/>
  <ellipse cx="300.0" cy="638" rx="138" ry="20" fill="#d8cabd" opacity="0.55"/>
  <path d="M 334.0 280.0 C 346.3 283.3, 325.7 288.3, 340.0 300.0 C 354.3 311.7, 401.7 328.3, 420.0 350.0 C 438.3 371.7, 447.0 401.7, 450.0 430.0 C 453.0 458.3, 447.7 494.0, 438.0 520.0 C 428.3 546.0, 404.7 571.0, 392.0 586.0 C 379.3 601.0, 367.3 603.7, 362.0 610.0 C 356.7 616.3, 380.3 621.7, 360.0 624.0 C 339.7 626.3, 260.3 626.3, 240.0 624.0 C 219.7 621.7, 243.3 616.3, 238.0 610.0 C 232.7 603.7, 220.7 601.0, 208.0 586.0 C 195.3 571.0, 171.7 546.0, 162.0 520.0 C 152.3 494.0, 147.0 458.3, 150.0 430.0 C 153.0 401.7, 161.7 371.7, 180.0 350.0 C 198.3 328.3, 245.7 311.7, 260.0 300.0 C 274.3 288.3, 253.7 283.3, 266.0 280.0 C 278.3 276.7, 321.7 276.7, 334.0 280.0 Z" fill="url(#glaze-vase-11)"/>
  <path d="M 334.0 280.0 C 346.3 283.3, 325.7 288.3, 340.0 300.0 C 354.3 311.7, 401.7 328.3, 420.0 350.0 C 438.3 371.7, 447.0 401.7, 450.0 430.0 C 453.0 458.3, 447.7 494.0, 438.0 520.0 C 428.3 546.0, 404.7 571.0, 392.0 586.0 C 379.3 601.0, 367.3 603.7, 362.0 610.0 C 356.7 616.3, 380.3 621.7, 360.0 624.0 C 339.7 626.3, 260.3 626.3, 240.0 624.0 C 219.7 621.7, 243.3 616.3, 238.0 610.0 C 232.7 603.7, 220.7 601.0, 208.0 586.0 C 195.3 571.0, 171.7 546.0, 162.0 520.0 C 152.3 494.0, 147.0 458.3, 150.0 430.0 C 153.0 401.7, 161.7 371.7, 180.0 350.0 C 198.3 328.3, 245.7 311.7, 260.0 300.0 C 274.3 288.3, 253.7 283.3, 266.0 280.0 C 278.3 276.7, 321.7 276.7, 334.0 280.0 Z" fill="url(#glaze-vase-11-sheen)"/>
  <ellipse cx="300.0" cy="280" rx="34" ry="5.4" fill="#000000" opacity="0.28"/>
</svg>
